<svg xmlns="http://www.w3.org/2000/svg" viewBox="0 0 30 20"><rect width="30" height="20" fill="#B22234"/><path d="M0 2.3h30M0 5.4h30M0 8.5h30M0 11.5h30M0 14.6h30M0 17.7h30" stroke="#fff" stroke-width="1.54"/><rect width="13" height="10.8" fill="#3C3B6E"/><g fill="#fff"><circle cx="2.2" cy="2" r=".6"/><circle cx="5.4" cy="2" r=".6"/><circle cx="8.6" cy="2" r=".6"/><circle cx="11" cy="2" r=".6"/><circle cx="3.8" cy="4.3" r=".6"/><circle cx="7" cy="4.3" r=".6"/><circle cx="10.2" cy="4.3" r=".6"/><circle cx="2.2" cy="6.6" r=".6"/><circle cx="5.4" cy="6.6" r=".6"/><circle cx="8.6" cy="6.6" r=".6"/><circle cx="11" cy="6.6" r=".6"/><circle cx="3.8" cy="8.9" r=".6"/><circle cx="7" cy="8.9" r=".6"/><circle cx="10.2" cy="8.9" r=".6"/></g></svg>
